<svg id="Capa_1" data-name="Capa 1" xmlns="http://www.w3.org/2000/svg" viewBox="0 0 150 150"><defs><style>.cls-1{fill:#fff;}.cls-2{fill:#005db4;}</style></defs><title>Perfil</title><path class="cls-1" d="M52.64,117.41l-22.38,12.2a21.18,21.18,0,0,0-3.59,2.56,74.94,74.94,0,0,0,96.3.25,19.8,19.8,0,0,0-3.94-2.64l-24-12A9.14,9.14,0,0,1,90,109.62v-9.4a33.28,33.28,0,0,0,2.27-2.91,55,55,0,0,0,7.44-15,7.51,7.51,0,0,0,5.35-7.15v-10a7.49,7.49,0,0,0-2.51-5.57V45s3-22.57-27.6-22.57S47.37,45,47.37,45V59.53a7.49,7.49,0,0,0-2.51,5.57v10a7.55,7.55,0,0,0,3.47,6.31,49.74,49.74,0,0,0,9.08,18.77v9.18a9.15,9.15,0,0,1-4.77,8Zm0,0" transform="translate(0.04 0.19)"/><path class="cls-2" d="M76.24-.18A74.95,74.95,0,0,0,26.7,132.14a22.3,22.3,0,0,1,3.55-2.53l22.39-12.2a9.13,9.13,0,0,0,4.75-8v-9.16a49.79,49.79,0,0,1-9.06-18.78,7.48,7.48,0,0,1-3.47-6.3v-10a7.51,7.51,0,0,1,2.5-5.56V45s-3-22.58,27.6-22.58S102.56,45,102.56,45V59.53a7.51,7.51,0,0,1,2.5,5.56v10a7.53,7.53,0,0,1-5.34,7.15,55.28,55.28,0,0,1-7.44,15c-.83,1.16-1.59,2.14-2.27,2.91v9.4a9.14,9.14,0,0,0,5,8.18l24,12a19.68,19.68,0,0,1,3.93,2.63A75,75,0,0,0,76.24-.18Zm0,0" transform="translate(0.04 0.19)"/></svg>